<svg version="1.1" xmlns="http://www.w3.org/2000/svg" xmlns:xlink="http://www.w3.org/1999/xlink" width="1560" height="804"><defs/><g><path fill="none" stroke="#02063B" paint-order="fill stroke markers" d=" M 20 416.0364465634762 L 21 416.7357992239877 L 22 417.4347907490927 L 23 418.1334040083604 L 24 418.83162188063017 L 25 419.5294272544316 L 26 420.2268030284032 L 27 420.923732111712 L 28 421.6201974244723 L 29 422.3161818981639 L 30 423.01166847605106 L 31 423.7066401135999 L 32 424.4010797788965 L 33 425.09497045306404 L 34 425.78829513068007 L 35 426.48103682019325 L 36 427.17317854433975 L 37 427.86470334055923 L 38 428.55559426141065 L 39 429.2458343749876 L 40 429.93540676533325 L 41 430.62429453285483 L 42 431.3124807947379 L 43 431.99994868536004 L 44 432.68668135670424 L 45 433.37266197877176 L 46 434.0578737399946 L 47 434.7422998476475 L 48 435.4259235282594 L 49 436.1087280280247 L 50 436.79069661321387 L 51 437.47181257058315 L 52 438.1520592077846 L 53 438.83141985377506 L 54 439.5098778592245 L 55 440.18741659692444 L 56 440.86401946219496 L 57 441.53966987329215 L 58 442.214351271814 L 59 442.8880471231066 L 60 443.56074091666915 L 61 444.23241616655855 L 62 444.9030564117936 L 63 445.5726452167583 L 64 446.2411661716047 L 65 446.90860289265487 L 66 447.57493902280277 L 67 448.24015823191485 L 68 448.90424421723037 L 69 449.56718070376076 L 70 450.22895144468885 L 71 450.88954022176665 L 72 451.54893084571296 L 73 452.2071071566103 L 74 452.8640530243005 L 75 453.5197523487807 L 76 454.1741890605971 L 77 454.8273471212394 L 78 455.47921052353377 L 79 456.1297632920348 L 80 456.77898948341726 L 81 457.42687318686694 L 82 458.0733985244704 L 83 458.7185496516041 L 84 459.36231075732286 L 85 460.0046660647472 L 86 460.6455998314499 L 87 461.28509634984215 L 88 461.9231399475582 L 89 462.55971498783947 L 90 463.1948058699179 L 91 463.8283970293983 L 92 464.46047293863944 L 93 465.0910181071352 L 94 465.7200170818937 L 95 466.347454447816 L 96 466.9733148280744 L 97 467.5975828844887 L 98 468.22024331790243 L 99 468.84128086855765 L 100 469.46068031646905 L 101 470.07842648179684 L 102 470.69450422521874 L 103 471.30889844830114 L 104 471.92159409386915 L 105 472.5325761463753 L 106 473.1418296322679 L 107 473.74933962035783 L 108 474.35509122218446 L 109 474.95906959238056 L 110 475.56125992903605 L 111 476.16164747406094 L 112 476.76021751354676 L 113 477.3569553781274 L 114 477.9518464433384 L 115 478.54487612997553 L 116 479.136029904452 L 117 479.7252932791547 L 118 480.31265181279906 L 119 480.8980911107833 L 120 481.4815968255409 L 121 482.06315465689244 L 122 482.6427503523959 L 123 483.220369707696 L 124 483.7959985668724 L 125 484.3696228227864 L 126 484.94122841742706 L 127 485.5108013422552 L 128 486.0783276385472 L 129 486.6437933977368 L 130 487.20718476175597 L 131 487.7684879233748 L 132 488.32768912653955 L 133 488.88477466671 L 134 489.4397308911951 L 135 489.99254419948784 L 136 490.5432010435983 L 137 491.09168792838574 L 138 491.6379914118896 L 139 492.18209810565844 L 140 492.7239946750785 L 141 493.26366783970025 L 142 493.8011043735639 L 143 494.3362911055235 L 144 494.86921491957 L 145 495.39986275515224 L 146 495.92822160749745 L 147 496.45427852792955 L 148 496.97802062418697 L 149 497.49943506073816 L 150 498.0185090590964 L 151 498.53522989813297 L 152 499.0495849143888 L 153 499.56156150238485 L 154 500.0711471149311 L 155 500.57832926343394 L 156 501.08309551820236 L 157 501.58543350875254 L 158 502.08533092411085 L 159 502.5827755131159 L 160 503.0777550847183 L 161 503.57025750827995 L 162 504.060270713871 L 163 504.5477826925657 L 164 505.0327814967368 L 165 505.51525524034827 L 166 505.99519209924665 L 167 506.4725803114508 L 168 506.94740817744014 L 169 507.4196640604414 L 170 507.88933638671386 L 171 508.3564136458328 L 172 508.82088439097186 L 173 509.2827372391833 L 174 509.74196087167724 L 175 510.1985440340988 L 176 510.65247553680416 L 177 511.1037442551345 L 178 511.55233912968885 L 179 511.9982491665951 L 180 512.4414634377794 L 181 512.8819710812339 L 182 513.3197613012832 L 183 513.7548233688485 L 184 514.187146621711 L 185 514.6167204647728 L 186 515.043534370317 L 187 515.4675778782654 L 188 515.8888405964346 L 189 516.3073122007914 L 190 516.7229824357053 L 191 517.1358411141996 L 192 517.5458781182018 L 193 517.9530833987911 L 194 518.3574469764447 L 195 518.7589589412823 L 196 519.1576094533094 L 197 519.5533887426576 L 198 519.946287109825 L 199 520.3362949259133 L 200 520.7234026328641 L 201 521.1076007436927 L 202 521.4888798427213 L 203 521.8672305858089 L 204 522.2426437005811 L 205 522.6151099866569 L 206 522.9846203158739 L 207 523.3511656325131 L 208 523.7147369535196 L 209 524.0753253687233 L 210 524.432922041057 L 211 524.787518206774 L 212 525.1391051756611 L 213 525.4876743312534 L 214 525.8332171310437 L 215 526.1757251066937 L 216 526.5151898642398 L 217 526.8516030843002 L 218 527.184956522278 L 219 527.5152420085633 L 220 527.8424514487336 L 221 528.1665768237525 L 222 528.4876101901655 L 223 528.8055436802949 L 224 529.1203695024335 L 225 529.4320799410339 L 226 529.740667356899 L 227 530.0461241873688 L 228 530.3484429465054 L 229 530.6476162252767 L 230 530.9436366917382 L 231 531.2364970912123 L 232 531.5261902464664 L 233 531.8127090578886 L 234 532.0960465036617 L 235 532.3761956399355 L 236 532.6531496009967 L 237 532.9269015994373 L 238 533.1974449263209 L 239 533.4647729513473 L 240 533.7288791230146 L 241 533.9897569687802 L 242 534.2474000952191 L 243 534.5018021881805 L 244 534.7529570129432 L 245 535.0008584143677 L 246 535.2455003170472 L 247 535.4868767254568 L 248 535.7249817240998 L 249 535.9598094776538 L 250 536.1913542311123 L 251 536.4196103099268 L 252 536.6445721201454 L 253 536.86623414855 L 254 537.0845909627915 L 255 537.2996372115226 L 256 537.5113676245296 L 257 537.7197770128606 L 258 537.9248602689538 L 259 538.1266123667617 L 260 538.325028361875 L 261 538.5201033916428 L 262 538.7118326752932 L 263 538.9002115140493 L 264 539.0852352912444 L 265 539.2668994724362 L 266 539.4451996055167 L 267 539.6201313208218 L 268 539.7916903312387 L 269 539.9598724323102 L 270 540.124673502339 L 271 540.2860895024869 L 272 540.4441164768755 L 273 540.5987505526821 L 274 540.7499879402353 L 275 540.8978249331074 L 276 541.042257908205 L 277 541.1832833258586 L 278 541.3208977299088 L 279 541.4550977477911 L 280 541.5858800906184 L 281 541.7132415532619 L 282 541.8371790144297 L 283 541.9576894367428 L 284 542.0747698668099 L 285 542.1884174352998 L 286 542.2986293570118 L 287 542.4054029309434 L 288 542.5087355403572 L 289 542.6086246528447 L 290 542.7050678203882 L 291 542.7980626794214 L 292 542.8876069508864 L 293 542.9736984402904 L 294 543.0563350377589 L 295 543.135514718088 L 296 543.2112355407933 L 297 543.283495650158 L 298 543.3522932752783 L 299 543.4176267301066 L 300 543.4794944134931 L 301 543.5378948092246 L 302 543.592826486062 L 303 543.6442880977758 L 304 543.6922783831777 L 305 543.7367961661533 L 306 543.7778403556896 L 307 543.8154099459022 L 308 543.8495040160598 L 309 543.8801217306072 L 310 543.9072623391853 L 311 543.9309251766498 L 312 543.951109663087 L 313 543.9678153038287 L 314 543.981041689464 L 315 543.990788495849 L 316 543.9970554841154 L 317 543.999842500676 L 318 543.9991494772283 L 319 543.9949764307565 L 320 543.9873234635311 L 321 543.9761907631057 L 322 543.9615786023135 L 323 543.94348733926 L 324 543.9219174173137 L 325 543.8968693650967 L 326 543.8683437964702 L 327 543.8363414105204 L 328 543.800862991541 L 329 543.7619094090139 L 330 543.7194816175885 L 331 543.6735806570574 L 332 543.6242076523317 L 333 543.5713638134127 L 334 543.5150504353634 L 335 543.4552688982751 L 336 543.392020667235 L 337 543.3253072922898 L 338 543.2551304084076 L 339 543.1814917354379 L 340 543.1043930780695 L 341 543.0238363257864 L 342 542.9398234528211 L 343 542.8523565181066 L 344 542.7614376652258 L 345 542.667069122359 L 346 542.569253202229 L 347 542.4679923020452 L 348 542.363288903444 L 349 542.2551455724281 L 350 542.1435649593044 L 351 542.0285497986181 L 352 541.9101029090859 L 353 541.7882271935276 L 354 541.662925638794 L 355 541.5342013156944 L 356 541.402057378921 L 357 541.2664970669716 L 358 541.1275237020703 L 359 540.9851406900864 L 360 540.8393515204501 L 361 540.6901597660681 L 362 540.5375690832346 L 363 540.3815832115437 L 364 540.2222059737954 L 365 540.059441275904 L 366 539.8932931068009 L 367 539.7237655383376 L 368 539.550862725186 L 369 539.3745889047359 L 370 539.1949483969915 L 371 539.0119456044663 L 372 538.8255850120737 L 373 538.6358711870182 L 374 538.4428087786832 L 375 538.2464025185168 L 376 538.0466572199164 L 377 537.8435777781101 L 378 537.637169170037 L 379 537.4274364542255 L 380 537.2143847706689 L 381 536.9980193406993 L 382 536.7783454668609 L 383 536.555368532778 L 384 536.3290940030246 L 385 536.0995274229904 L 386 535.866674418744 L 387 535.6305406968957 L 388 535.3911320444575 L 389 535.1484543287016 L 390 534.9025134970159 L 391 534.6533155767585 L 392 534.4008666751106 L 393 534.145172978926 L 394 533.88624075458 L 395 533.6240763478153 L 396 533.3586861835873 L 397 533.0900767659059 L 398 532.8182546776766 L 399 532.5432265805384 L 400 532.2649992147019 L 401 531.9835793987825 L 402 531.6989740296347 L 403 531.411190082182 L 404 531.1202346092468 L 405 530.8261147413771 L 406 530.5288376866717 L 407 530.2284107306039 L 408 529.9248412358426 L 409 529.6181366420718 L 410 529.3083044658089 L 411 528.9953523002198 L 412 528.6792878149331 L 413 528.3601187558522 L 414 528.0378529449653 L 415 527.7124982801537 L 416 527.3840627349986 L 417 527.0525543585851 L 418 526.7179812753054 L 419 526.3803516846598 L 420 526.0396738610549 L 421 525.695956153602 L 422 525.3492069859115 L 423 524.9994348558871 L 424 524.6466483355174 L 425 524.2908560706652 L 426 523.9320667808568 L 427 523.5702892590671 L 428 523.205532371505 L 429 522.8378050573956 L 430 522.4671163287613 L 431 522.093475270201 L 432 521.7168910386674 L 433 521.3373728632424 L 434 520.9549300449112 L 435 520.5695719563344 L 436 520.1813080416179 L 437 519.7901478160817 L 438 519.396100866027 L 439 518.9991768485007 L 440 518.5993854910593 L 441 518.1967365915295 L 442 517.7912400177698 L 443 517.382905707427 L 444 516.9717436676932 L 445 516.5577639750612 L 446 516.1409767750765 L 447 515.7213922820896 L 448 515.2990207790049 L 449 514.873872617029 L 450 514.4459582154175 L 451 514.0152880612186 L 452 513.5818727090173 L 453 513.1457227806758 L 454 512.7068489650734 L 455 512.265262017845 L 456 511.8209727611168 L 457 511.37399208324183 L 458 510.9243309385324 L 459 510.4720003469923 L 460 510.01701139404594 L 461 509.5593752302675 L 462 509.09910307110715 L 463 508.63620619661634 L 464 508.1706959511713 L 465 507.70258374319513 L 466 507.2318810448781 L 467 506.75859939189655 L 468 506.2827503831301 L 469 505.8043456803776 L 470 505.323397008071 L 471 504.83991615298845 L 472 504.353914963965 L 473 503.8654053516024 L 474 503.3743992879774 L 475 502.8809088063479 L 476 502.3849460008586 L 477 501.88652302624394 L 478 501.38565209753096 L 479 500.88234548973935 L 480 500.3766155375809 L 481 499.8684746351572 L 482 499.35793523565576 L 483 498.8450098510449 L 484 498.3297110517672 L 485 497.8120514664313 L 486 497.29204378150246 L 487 496.76970074099154 L 488 496.245035146143 L 489 495.7180598551207 L 490 495.18878778269334 L 491 494.6572318999173 L 492 494.12340523381937 L 493 493.58732086707704 L 494 493.04899193769825 L 495 492.50843163869905 L 496 491.9656532177806 L 497 491.4206699770042 L 498 490.87349527246556 L 499 490.3241425139673 L 500 489.7726251646904 L 501 489.21895674086426 L 502 488.66315081143534 L 503 488.10522099773476 L 504 487.5451809731444 L 505 486.9830444627618 L 506 486.4188252430639 L 507 485.8525371415692 L 508 485.28419403649906 L 509 484.7138098564376 L 510 484.1413985799902 L 511 483.5669742354411 L 512 482.9905509004093 L 513 482.412142701504 L 514 481.83176381397806 L 515 481.2494284613807 L 516 480.66515091520887 L 517 480.0789454945576 L 518 479.490826565769 L 519 478.90080854208026 L 520 478.3089058832702 L 521 477.7151330953052 L 522 477.1195047299834 L 523 476.52203538457843 L 524 475.9227397014814 L 525 475.32163236784197 L 526 474.7187281152087 L 527 474.11404171916786 L 528 473.5075879989813 L 529 472.8993818172233 L 530 472.28943807941636 L 531 471.67777173366585 L 532 471.0643977702938 L 533 470.44933122147125 L 534 469.8325871608501 L 535 469.21418070319373 L 536 468.5941270040063 L 537 467.97244125916154 L 538 467.34913870453033 L 539 466.7242346156074 L 540 466.09774430713657 L 541 465.4696831327359 L 542 464.8400664845211 L 543 464.2089097927286 L 544 463.576228525337 L 545 462.94203818768835 L 546 462.30635432210795 L 547 461.6691925075235 L 548 461.0305683590834 L 549 460.390497527774 L 550 459.74899570003583 L 551 459.1060785973795 L 552 458.4617619760002 L 553 457.81606162639173 L 554 457.1689933729592 L 555 456.5205730736317 L 556 455.87081661947315 L 557 455.21973993429305 L 558 454.5673589742564 L 559 453.9136897274926 L 560 453.2587482137034 L 561 452.6025504837705 L 562 451.94511261936196 L 563 451.2864507325386 L 564 450.6265809653585 L 565 449.96551948948184 L 566 449.3032825057743 L 567 448.6398862439102 L 568 447.9753469619747 L 569 447.30968094606544 L 570 446.64290450989324 L 571 445.9750339943823 L 572 445.30608576726985 L 573 444.6360762227052 L 574 443.96502178084734 L 575 443.2929388874633 L 576 442.6198440135245 L 577 441.94575365480347 L 578 441.2706843314693 L 579 440.59465258768296 L 580 439.9176749911918 L 581 439.23976813292353 L 582 438.56094862657966 L 583 437.8812331082281 L 584 437.2006382358959 L 585 436.5191806891605 L 586 435.8368771687414 L 587 435.1537443960906 L 588 434.46979911298274 L 589 433.78505808110515 L 590 433.09953808164676 L 591 432.4132559148869 L 592 431.7262283997838 L 593 431.03847237356183 L 594 430.35000469129955 L 595 429.66084222551626 L 596 428.97100186575847 L 597 428.2805005181862 L 598 427.5893551051584 L 599 426.8975825648185 L 600 426.20519985067904 L 601 425.51222393120634 L 602 424.8186717894046 L 603 424.12456042239984 L 604 423.42990684102296 L 605 422.7347280693933 L 606 422.03904114450114 L 607 421.34286311579024 L 608 420.6462110447401 L 609 419.9491020044476 L 610 419.2515530792088 L 611 418.5535813641003 L 612 417.8552039645599 L 613 417.15643799596785 L 614 416.45730058322715 L 615 415.75780886034386 L 616 415.0579799700073 L 617 414.35783106316984 L 618 413.65737929862667 L 619 412.95664184259516 L 620 412.2556358682942 L 621 411.5543785555234 L 622 410.852887090242 L 623 410.15117866414766 L 624 409.44927047425523 L 625 408.74717972247527 L 626 408.0449236151923 L 627 407.34251936284346 L 628 406.6399841794963 L 629 405.93733528242745 L 630 405.23458989170007 L 631 404.5317652297423 L 632 403.8288785209249 L 633 403.1259469911393 L 634 402.4229878673754 L 635 401.7200183772993 L 636 401.0170557488311 L 637 400.31411720972295 L 638 399.61121998713634 L 639 398.9083813072204 L 640 398.2056183946895 L 641 397.50294847240116 L 642 396.80038876093386 L 643 396.0979564781652 L 644 395.3956688388499 L 645 394.6935430541976 L 646 393.99159633145166 L 647 393.28984587346685 L 648 392.5883088782881 L 649 391.88700253872884 L 650 391.18594404194994 L 651 390.4851505690381 L 652 389.78463929458513 L 653 389.0844273862668 L 654 388.3845320044222 L 655 387.6849703016334 L 656 386.98575942230457 L 657 386.28691650224243 L 658 385.5884586682357 L 659 384.89040303763585 L 660 384.19276671793733 L 661 383.4955668063585 L 662 382.7988203894224 L 663 382.1025445425382 L 664 381.4067563295826 L 665 380.7114728024816 L 666 380.01671100079284 L 667 379.3224879512877 L 668 378.6288206675344 L 669 377.93572614948056 L 670 377.243221383037 L 671 376.55132333966117 L 672 375.8600489759414 L 673 375.1694152331813 L 674 374.4794390369846 L 675 373.7901372968402 L 676 373.10152690570794 L 677 372.4136247396045 L 678 371.72644765718974 L 679 371.0400124993539 L 680 370.3543360888044 L 681 369.66943522965386 L 682 368.9853267070081 L 683 368.3020272865549 L 684 367.61955371415326 L 685 366.9379227154226 L 686 366.2571509953332 L 687 365.57725523779663 L 688 364.8982521052571 L 689 364.22015823828275 L 690 363.5429902551581 L 691 362.8667647514768 L 692 362.1914982997347 L 693 361.5172074489239 L 694 360.843908724127 L 695 360.17161862611243 L 696 359.5003536309297 L 697 358.8301301895056 L 698 358.1609647272416 L 699 357.4928736436106 L 700 356.82587331175546 L 701 356.1599800780874 L 702 355.495210261886 L 703 354.83158015489835 L 704 354.16910602094066 L 705 353.5078040954992 L 706 352.84769058533243 L 707 352.188781668074 L 708 351.53109349183615 L 709 350.87464217481397 L 710 350.21944380489043 L 711 349.56551443924207 L 712 348.91287010394547 L 713 348.26152679358466 L 714 347.6115004708588 L 715 346.96280706619126 L 716 346.31546247733917 L 717 345.66948256900366 L 718 345.0248831724412 L 719 344.3816800850756 L 720 343.7398890701108 L 721 343.09952585614457 L 722 342.46060613678316 L 723 341.8231455702564 L 724 341.1871597790343 L 725 340.552664349444 L 726 339.9196748312878 L 727 339.2882067374622 L 728 338.6582755435774 L 729 338.0298966875785 L 730 337.4030855693668 L 731 336.7778575504224 L 732 336.15422795342806 L 733 335.53221206189323 L 734 334.9118251197798 L 735 334.2930823311285 L 736 333.6759988596861 L 737 333.0605898285339 L 738 332.4468703197173 L 739 331.83485537387566 L 740 331.2245599898743 L 741 330.6159991244365 L 742 330.009187691777 L 743 329.4041405632368 L 744 328.8008725669184 L 745 328.1993984873223 L 746 327.5997330649851 L 747 327.0018909961179 L 748 326.4058869322462 L 749 325.8117354798508 L 750 325.2194512000102 L 751 324.62904860804315 L 752 324.0405421731533 L 753 323.4539463180746 L 754 322.8692754187175 L 755 322.28654380381727 L 756 321.7057657545821 L 757 321.12695550434364 L 758 320.550127238208 L 759 319.97529509270805 L 760 319.402473155457 L 761 318.83167546480325 L 762 318.26291600948633 L 763 317.69620872829387 L 764 317.1315675097203 L 765 316.56900619162616 L 766 316.0085385608993 L 767 315.4501783531168 L 768 314.8939392522083 L 769 314.33983489012087 L 770 313.7878788464846 L 771 313.2380846482801 L 772 312.690465769507 L 773 312.1450356308533 L 774 311.601807599367 L 775 311.0607949881284 L 776 310.5220110559234 L 777 309.985469006919 L 778 309.45118199033976 L 779 308.9191631001451 L 780 308.38942537470894 L 781 307.8619817964996 L 782 307.3368452917622 L 783 306.8140287302014 L 784 306.2935449246663 L 785 305.7754066308364 L 786 305.2596265469087 L 787 304.74621731328693 L 788 304.2351915122714 L 789 303.72656166775096 L 790 303.2203402448958 L 791 302.7165396498521 L 792 302.215172229438 L 793 301.7162502708409 L 794 301.2197860013165 L 795 300.725791587889 L 796 300.23427913705285 L 797 299.7452606944765 L 798 299.2587482447065 L 799 298.7747537108744 L 800 298.29328895440415 L 801 297.8143657747217 L 802 297.33799590896547 L 803 296.8641910316992 L 804 296.39296275462533 L 805 295.92432262630075 L 806 295.4582821318537 L 807 294.9948526927021 L 808 294.5340456662742 L 809 294.07587234572946 L 810 293.6203439596823 L 811 293.1674716719271 L 812 292.71726658116376 L 813 292.26973972072676 L 814 291.82490205831385 L 815 291.38276449571805 L 816 290.9433378685597 L 817 290.5066329460216 L 818 290.07266043058456 L 819 289.64143095776546 L 820 289.21295509585644 L 821 288.78724334566596 L 822 288.36430614026125 L 823 287.94415384471307 L 824 287.52679675584113 L 825 287.1122451019624 L 826 286.7005090426396 L 827 286.29159866843315 L 828 285.885524000653 L 829 285.4822949911138 L 830 285.08192152189037 L 831 284.68441340507604 L 832 284.2897803825417 L 833 283.89803212569757 L 834 283.5091782352556 L 835 283.12322824099476 L 836 282.740191601527 L 837 282.3600777040659 L 838 281.98289586419605 L 839 281.6086553256455 L 840 281.23736526005825 L 841 280.8690347667706 L 842 280.5036728725872 L 843 280.1412885315603 L 844 279.7818906247701 L 845 279.42548796010755 L 846 279.0720892720577 L 847 278.72170322148645 L 848 278.3743383954277 L 849 278.0300033068733 L 850 277.6887063945641 L 851 277.35045602278353 L 852 277.0152604811521 L 853 276.68312798442474 L 854 276.35406667228915 L 855 276.0280846091665 L 856 275.70518978401367 L 857 275.38539011012756 L 858 275.068693424951 L 859 274.75510748988097 L 860 274.4446399900781 L 861 274.1372985342784 L 862 273.83309065460685 L 863 273.5320238063929 L 864 273.23410536798735 L 865 272.93934264058214 L 866 272.6477428480308 L 867 272.3593131366721 L 868 272.07406057515396 L 869 271.7919921542614 L 870 271.5131147867439 L 871 271.2374353071474 L 872 270.96496047164555 L 873 270.6956969578748 L 874 270.42965136477073 L 875 270.1668302124061 L 876 269.9072399418311 L 877 269.6508869149159 L 878 269.3977774141938 L 879 269.14791764270853 L 880 268.90131372386105 L 881 268.65797170126035 L 882 268.4178975385747 L 883 268.1810971193861 L 884 267.9475762470454 L 885 267.71734064453074 L 886 267.4903959543068 L 887 267.2667477381869 L 888 267.0464014771963 L 889 266.8293625714383 L 890 266.61563633996155 L 891 266.4052280206299 L 892 266.1981427699938 L 893 265.9943856631644 L 894 265.79396169368846 L 895 265.59687577342675 L 896 265.40313273243305 L 897 265.21273731883616 L 898 265.0256941987233 L 899 264.84200795602595 L 900 264.6616830924073 L 901 264.48472402715214 L 902 264.31113509705847 L 903 264.1409205563311 L 904 263.9740845764776 L 905 263.81063124620584 L 906 263.6505645713241 L 907 263.4938884746425 L 908 263.34060679587725 L 909 263.1907232915562 L 910 263.0442416349271 L 911 262.90116541586724 L 912 262.76149814079594 L 913 262.625243232588 L 914 262.49240403049043 L 915 262.36298379004006 L 916 262.23698568298425 L 917 262.11441279720293 L 918 261.9952681366327 L 919 261.87955462119373 L 920 261.7672750867178 L 921 261.65843228487876 L 922 261.55302888312553 L 923 261.45106746461613 L 924 261.35255052815495 L 925 261.25748048813114 L 926 261.1658596744595 L 927 261.0776903325236 L 928 260.9929746231204 L 929 260.91171462240754 L 930 260.8339123218524 L 931 260.75956962818327 L 932 260.68868836334264 L 933 260.6212702644426 L 934 260.5573169837222 L 935 260.49683008850684 L 936 260.43981106117025 L 937 260.38626129909767 L 938 260.3361821146519 L 939 260.2895747351411 L 940 260.24644030278876 L 941 260.2067798747055 L 942 260.1705944228635 L 943 260.13788483407205 L 944 260.1086519099568 L 945 260.08289636693917 L 946 260.0606188362193 L 947 260.04181986376045 L 948 260.0264999102757 L 949 260.01465935121644 L 950 260.0062984767635 L 951 260.0014174918198 L 952 260.00001651600513 L 953 260.00209558365395 L 954 260.0076546438137 L 955 260.0166935602465 L 956 260.02921211143257 L 957 260.0452099905753 L 958 260.0646868056091 L 959 260.08764207920876 L 960 260.1140752488013 L 961 260.14398566657985 L 962 260.17737259951923 L 963 260.21423522939426 L 964 260.2545726527993 L 965 260.2983838811712 L 966 260.34566784081267 L 967 260.3964233729191 L 968 260.45064923360684 L 969 260.5083440939437 L 970 260.5695065399815 L 971 260.63413507279074 L 972 260.70222810849714 L 973 260.7737839783208 L 974 260.8488009286169 L 975 260.92727712091875 L 976 261.0092106319827 L 977 261.09459945383543 L 978 261.183441493823 L 979 261.2757345746626 L 980 261.371476434495 L 981 261.47066472694087 L 982 261.57329702115806 L 983 261.67937080190075 L 984 261.78888346958155 L 985 261.9018323403351 L 986 262.0182146460837 L 987 262.1380275346055 L 988 262.2612680696037 L 989 262.38793323077937 L 990 262.5180199139049 L 991 262.6515249309002 L 992 262.78844500991113 L 993 262.928776795389 L 994 263.07251684817356 L 995 263.2196616455769 L 996 263.3702075814697 L 997 263.5241509663699 L 998 263.68148802753285 L 999 263.84221490904406 L 1000 264.00632767191325 L 1001 264.17382229417143 L 1002 264.344694670969 L 1003 264.5189406146766 L 1004 264.69655585498776 L 1005 264.87753603902337 L 1006 265.0618767314385 L 1007 265.2495734145311 L 1008 265.4406214883526 L 1009 265.63501627082076 L 1010 265.83275299783435 L 1011 266.03382682339 L 1012 266.2382328197009 L 1013 266.4459659773175 L 1014 266.6570212052503 L 1015 266.87139333109474 L 1016 267.0890771011578 L 1017 267.3100671805869 L 1018 267.53435815350065 L 1019 267.7619445231213 L 1020 267.99282071190987 L 1021 268.2269810617023 L 1022 268.464419833849 L 1023 268.70513120935425 L 1024 268.94910928902004 L 1025 269.1963480935899 L 1026 269.44684156389553 L 1027 269.7005835610055 L 1028 269.95756786637565 L 1029 270.2177881820013 L 1030 270.4812381305718 L 1031 270.7479112556267 L 1032 271.01780102171415 L 1033 271.2909008145508 L 1034 271.5672039411842 L 1035 271.8467036301565 L 1036 272.12939303167076 L 1037 272.4152652177585 L 1038 272.7043131824496 L 1039 272.9965298419441 L 1040 273.2919080347858 L 1041 273.5904405220375 L 1042 273.8921199874588 L 1043 274.19693903768496 L 1044 274.50489020240855 L 1045 274.8159659345622 L 1046 275.1301586105037 L 1047 275.4474605302028 L 1048 275.76786391743 L 1049 276.09136091994685 L 1050 276.4179436096988 L 1051 276.74760398300907 L 1052 277.08033396077525 L 1053 277.41612538866684 L 1054 277.7549700373254 L 1055 278.09685960256616 L 1056 278.4417857055814 L 1057 278.7897398931461 L 1058 279.1407136378247 L 1059 279.49469833818046 L 1060 279.8516853189859 L 1061 280.2116658314358 L 1062 280.5746310533614 L 1063 280.9405720894463 L 1064 281.3094799714452 L 1065 281.6813456584031 L 1066 282.05616003687686 L 1067 282.433913921159 L 1068 282.81459805350244 L 1069 283.19820310434733 L 1070 283.58471967255014 L 1071 283.97413828561344 L 1072 284.3664493999186 L 1073 284.7616434009593 L 1074 285.15971060357754 L 1075 285.5606412522004 L 1076 285.9644255210798 L 1077 286.3710535145328 L 1078 286.78051526718434 L 1079 287.19280074421147 L 1080 287.6078998415893 L 1081 288.02580238633834 L 1082 288.44649813677427 L 1083 288.8699767827585 L 1084 289.2962279459513 L 1085 289.7252411800655 L 1086 290.1570059711233 L 1087 290.5915117377132 L 1088 291.0287478312498 L 1089 291.46870353623467 L 1090 291.91136807051885 L 1091 292.3567305855671 L 1092 292.80478016672384 L 1093 293.2555058334807 L 1094 293.70889653974547 L 1095 294.16494117411276 L 1096 294.62362856013675 L 1097 295.0849474566044 L 1098 295.5488865578117 L 1099 296.0154344938401 L 1100 296.4845798308354 L 1101 296.9563110712881 L 1102 297.4306166543151 L 1103 297.9074849559428 L 1104 298.3869042893924 L 1105 298.8688629053658 L 1106 299.3533489923341 L 1107 299.8403506768264 L 1108 300.3298560237216 L 1109 300.8218530365401 L 1110 301.3163296577385 L 1111 301.81327376900435 L 1112 302.3126731915539 L 1113 302.81451568643035 L 1114 303.31878895480315 L 1115 303.82548063827034 L 1116 304.33457831916076 L 1117 304.846069520839 L 1118 305.3599417080103 L 1119 305.8761822870287 L 1120 306.3947786062049 L 1121 306.9157179561169 L 1122 307.438987569921 L 1123 307.96457462366504 L 1124 308.4924662366025 L 1125 309.0226494715084 L 1126 309.55511133499573 L 1127 310.0898387778348 L 1128 310.62681869527233 L 1129 311.16603792735293 L 1130 311.7074832592415 L 1131 312.2511414215471 L 1132 312.7969990906482 L 1133 313.34504288901945 L 1134 313.8952593855587 L 1135 314.44763509591724 L 1136 315.0021564828294 L 1137 315.558809956445 L 1138 316.11758187466165 L 1139 316.67845854345995 L 1140 317.2414262172382 L 1141 317.80647109915014 L 1142 318.3735793414422 L 1143 318.9427370457937 L 1144 319.5139302636567 L 1145 320.0871449965986 L 1146 320.6623671966445 L 1147 321.2395827666221 L 1148 321.81877756050653 L 1149 322.39993738376774 L 1150 322.98304799371766 L 1151 323.56809509986 L 1152 324.1550643642397 L 1153 324.743941401795 L 1154 325.33471178070937 L 1155 325.92736102276587 L 1156 326.52187460370124 L 1157 327.11823795356247 L 1158 327.7164364570633 L 1159 328.31645545394326 L 1160 328.9182802393258 L 1161 329.5218960640798 L 1162 330.1272881351799 L 1163 330.73444161607046 L 1164 331.3433416270275 L 1165 331.9539732455249 L 1166 332.5663215065989 L 1167 333.1803714032159 L 1168 333.7961078866391 L 1169 334.41351586679866 L 1170 335.03258021266 L 1171 335.65328575259605 L 1172 336.275617274758 L 1173 336.8995595274489 L 1174 337.52509721949656 L 1175 338.15221502062934 L 1176 338.7808975618508 L 1177 339.41112943581743 L 1178 340.04289519721505 L 1179 340.67617936313854 L 1180 341.3109664134702 L 1181 341.94724079126115 L 1182 342.5849869031114 L 1183 343.22418911955344 L 1184 343.86483177543374 L 1185 344.50689917029797 L 1186 345.15037556877473 L 1187 345.7952452009623 L 1188 346.44149226281377 L 1189 347.0891009165258 L 1190 347.7380552909254 L 1191 348.38833948186 L 1192 349.0399375525863 L 1193 349.69283353416193 L 1194 350.3470114258355 L 1195 351.00245519543984 L 1196 351.6591487797841 L 1197 352.31707608504826 L 1198 352.97622098717653 L 1199 353.63656733227356 L 1200 354.2980989369994 L 1201 354.9607995889668 L 1202 355.62465304713794 L 1203 356.2896430422233 L 1204 356.9557532770793 L 1205 357.6229674271086 L 1206 358.2912691406596 L 1207 358.96064203942774 L 1208 359.631069718856 L 1209 360.30253574853805 L 1210 360.9750236726199 L 1211 361.64851701020405 L 1212 362.3229992557525 L 1213 362.99845387949216 L 1214 363.6748643278194 L 1215 364.35221402370564 L 1216 365.03048636710423 L 1217 365.7096647353564 L 1218 366.38973248359963 L 1219 367.0706729451745 L 1220 367.7524694320343 L 1221 368.4351052351527 L 1222 369.1185636249348 L 1223 369.80282785162535 L 1224 370.4878811457211 L 1225 371.17370671838 L 1226 371.8602877618342 L 1227 372.54760744980064 L 1228 373.23564893789467 L 1229 373.92439536404163 L 1230 374.6138298488912 L 1231 375.3039354962302 L 1232 375.99469539339736 L 1233 376.686092611697 L 1234 377.37811020681494 L 1235 378.0707312192328 L 1236 378.76393867464435 L 1237 379.4577155843708 L 1238 380.1520449457781 L 1239 380.84690974269233 L 1240 381.54229294581836 L 1241 382.2381775131554 L 1242 382.9345463904163 L 1243 383.6313825114442 L 1244 384.3286687986318 L 1245 385.0263881633389 L 1246 385.7245235063122 L 1247 386.42305771810356 L 1248 387.1219736794899 L 1249 387.8212542618921 L 1250 388.52088232779556 L 1251 389.22084073116935 L 1252 389.9211123178873 L 1253 390.6216799261475 L 1254 391.32252638689374 L 1255 392.02363452423543 L 1256 392.7249871558695 L 1257 393.42656709350047 L 1258 394.12835714326263 L 1259 394.8303401061406 L 1260 395.5324987783916 L 1261 396.23481595196614 L 1262 396.9372744149309 L 1263 397.63985695188944 L 1264 398.342546344405 L 1265 399.0453253714216 L 1266 399.74817680968704 L 1267 400.45108343417417 L 1268 401.1540280185036 L 1269 401.85699333536536 L 1270 402.55996215694176 L 1271 403.2629172553289 L 1272 403.96584140295937 L 1273 404.66871737302415 L 1274 405.37152793989515 L 1275 406.0742558795468 L 1276 406.7768839699789 L 1277 407.47939499163783 L 1278 408.1817717278396 L 1279 408.88399696519053 L 1280 409.58605349401046 L 1281 410.28792410875315 L 1282 410.98959160842924 L 1283 411.69103879702664 L 1284 412.39224848393303 L 1285 413.09320348435614 L 1286 413.7938866197458 L 1287 414.49428071821416 L 1288 415.1943686149573 L 1289 415.89413315267495 L 1290 416.59355718199214 L 1291 417.2926235618784 L 1292 417.99131516006855 L 1293 418.6896148534821 L 1294 419.38750552864343 L 1295 420.0849700821004 L 1296 420.7819914208446 L 1297 421.4785524627289 L 1298 422.1746361368876 L 1299 422.8702253841534 L 1300 423.5653031574765 L 1301 424.25985242234157 L 1302 424.9538561571862 L 1303 425.6472973538168 L 1304 426.34015901782675 L 1305 427.0324241690116 L 1306 427.7240758417865 L 1307 428.41509708560073 L 1308 429.10547096535424 L 1309 429.79518056181166 L 1310 430.484208972018 L 1311 431.1725393097117 L 1312 431.8601547057397 L 1313 432.5470383084698 L 1314 433.23317328420444 L 1315 433.91854281759294 L 1316 434.60313011204323 L 1317 435.28691839013425 L 1318 435.9698908940263 L 1319 436.6520308858727 L 1320 437.3333216482288 L 1321 438.01374648446284 L 1322 438.6932887191643 L 1323 439.37193169855306 L 1324 440.0496587908871 L 1325 440.7264533868709 L 1326 441.40229890006134 L 1327 442.0771787672752 L 1328 442.7510764489945 L 1329 443.4239754297722 L 1330 444.0958592186365 L 1331 444.76671134949567 L 1332 445.4365153815407 L 1333 446.10525489964914 L 1334 446.7729135147866 L 1335 447.4394748644091 L 1336 448.10492261286333 L 1337 448.76924045178794 L 1338 449.43241210051207 L 1339 450.0944213064554 L 1340 450.75525184552566 L 1341 451.41488752251706 L 1342 452.0733121715061 L 1343 452.73050965624884 L 1344 453.3864638705756 L 1345 454.0411587387863 L 1346 454.6945782160436 L 1347 455.3467062887672 L 1348 455.9975269750252 L 1349 456.64702432492663 L 1350 457.29518242101165 L 1351 457.94198537864236 L 1352 458.58741734639136 L 1353 459.231462506431 L 1354 459.87410507492007 L 1355 460.5153293023917 L 1356 461.15511947413836 L 1357 461.79345991059785 L 1358 462.43033496773666 L 1359 463.0657290374343 L 1360 463.6996265478651 L 1361 464.33201196388023 L 1362 464.962869787388 L 1363 465.5921845577345 L 1364 466.2199408520813 L 1365 466.8461232857848 L 1366 467.47071651277184 L 1367 468.0937052259171 L 1368 468.71507415741735 L 1369 469.33480807916595 L 1370 469.9528918031259 L 1371 470.56931018170263 L 1372 471.18404810811415 L 1373 471.79709051676247 L 1374 472.4084223836017 L 1375 473.0180287265074 L 1376 473.6258946056426 L 1377 474.23200512382493 L 1378 474.83634542689083 L 1379 475.4389007040605 L 1380 476.0396561882999 L 1381 476.63859715668366 L 1382 477.2357089307549 L 1383 477.83097687688587 L 1384 478.42438640663585 L 1385 479.0159229771092 L 1386 479.6055720913112 L 1387 480.1933192985043 L 1388 480.779150194561 L 1389 481.36305042231794 L 1390 481.94500567192705 L 1391 482.52500168120685 L 1392 483.10302423599126 L 1393 483.6790591704787 L 1394 484.2530923675786 L 1395 484.8251097592579 L 1396 485.3950973268854 L 1397 485.96304110157575 L 1398 486.52892716453124 L 1399 487.0927416473836 L 1400 487.65447073253307 L 1401 488.2141006534879 L 1402 488.7716176952009 L 1403 489.32700819440635 L 1404 489.88025853995396 L 1405 490.4313551731436 L 1406 490.98028458805607 L 1407 491.52703333188583 L 1408 492.0715880052692 L 1409 492.61393526261367 L 1410 493.1540618124244 L 1411 493.6919544176305 L 1412 494.22759989590884 L 1413 494.7609851200078 L 1414 495.29209701806803 L 1415 495.820922573944 L 1416 496.34744882752216 L 1417 496.8716628750384 L 1418 497.3935518693953 L 1419 497.9131030204757 L 1420 498.43030359545736 L 1421 498.94514091912384 L 1422 499.45760237417636 L 1423 499.96767540154184 L 1424 500.47534750068166 L 1425 500.98060622989715 L 1426 501.48343920663547 L 1427 501.98383410779206 L 1428 502.48177867001357 L 1429 502.9772606899974 L 1430 503.47026802479206 L 1431 503.9607885920934 L 1432 504.44881037054176 L 1433 504.9343214000159 L 1434 505.41730978192663 L 1435 505.897763679508 L 1436 506.37567131810766 L 1437 506.8510209854752 L 1438 507.32380103204946 L 1439 507.7939998712437 L 1440 508.26160597973006 L 1441 508.7266078977212 L 1442 509.18899422925193 L 1443 509.6487536424579 L 1444 510.105874869854 L 1445 510.5603467086094 L 1446 511.0121580208235 L 1447 511.46129773379755 L 1448 511.907754840307 L 1449 512.3515183988707 L 1450 512.7925775340193 L 1451 513.2309214365616 L 1452 513.6665393638499 L 1453 514.0994206400424 L 1454 514.5295546563657 L 1455 514.9569308713744 L 1456 515.3815388112097 L 1457 515.8033680698554 L 1458 516.2224083093939 L 1459 516.638649260259 L 1460 517.0520807214873 L 1461 517.4626925609688 L 1462 517.8704747156952 L 1463 518.2754171920058 L 1464 518.6775100658332 L 1465 519.0767434829461 L 1466 519.473107659191 L 1467 519.8665928807317 L 1468 520.2571895042879 L 1469 520.6448879573708 L 1470 521.0296787385184 L 1471 521.4115524175278 L 1472 521.7904996356866 L 1473 522.1665111060024 L 1474 522.5395776134299 L 1475 522.9096900150972 L 1476 523.2768392405299 L 1477 523.6410162918726 L 1478 524.0022122441108 L 1479 524.3604182452881 L 1480 524.7156255167246 L 1481 525.0678253532307 L 1482 525.4170091233215 L 1483 525.7631682694274 L 1484 526.106294308105 L 1485 526.4463788302438 L 1486 526.7834135012731 L 1487 527.1173900613657 L 1488 527.4483003256408 L 1489 527.7761361843644 L 1490 528.100889603148 L 1491 528.4225526231453 L 1492 528.741117361248 L 1493 529.056576010278 L 1494 529.3689208391795 L 1495 529.678144193208 L 1496 529.9842384941182 L 1497 530.2871962403497 L 1498 530.5870100072104 L 1499 530.8836724470591 L 1500 531.1771762894854 L 1501 531.4675143414872 L 1502 531.7546794876482 L 1503 532.0386646903113 L 1504 532.3194629897512 L 1505 532.5970675043454 L 1506 532.8714714307429 L 1507 533.1426680440298 L 1508 533.4106506978959 L 1509 533.6754128247959 L 1510 533.9369479361116 L 1511 534.1952496223099 L 1512 534.450311553101 L 1513 534.7021274775923 L 1514 534.9506912244426 L 1515 535.195996702013 L 1516 535.4380378985157 L 1517 535.6768088821625 L 1518 535.9123038013088 L 1519 536.1445168845979 L 1520 536.3734424411023 L 1521 536.599074860463 L 1522 536.8214086130271 L 1523 537.040438249983 L 1524 537.2561584034949 L 1525 537.4685637868328 L 1526 537.6776491945036 L 1527 537.8834095023777 L 1528 538.0858396678151 L 1529 538.2849347297886 L 1530 538.4806898090054 L 1531 538.6731001080274 L 1532 538.8621609113875 L 1533 539.0478675857064 L 1534 539.2302155798052 L 1535 539.4092004248179 L 1536 539.5848177342997 L 1537 539.7570632043357 L 1538 539.9259326136457 L 1539 540.0914218236878" stroke-linecap="round" stroke-linejoin="round" stroke-miterlimit="10" stroke-width="11"/></g></svg>